<?xml version="1.0" standalone="no"?>
<!DOCTYPE svg PUBLIC "-//W3C//DTD SVG 20010904//EN"
 "http://www.w3.org/TR/2001/REC-SVG-20010904/DTD/svg10.dtd">
<svg version="1.0" xmlns="http://www.w3.org/2000/svg"
 width="317.000000pt" height="317.000000pt" viewBox="0 0 317.000000 317.000000"
 preserveAspectRatio="xMidYMid meet">
<metadata>
Created by potrace 1.11, written by Peter Selinger 2001-2013
</metadata>
<g transform="translate(0.000000,317.000000) scale(0.100000,-0.100000)"
fill="#000000" stroke="none">
<path d="M1475 2959 c-169 -15 -357 -69 -499 -142 -65 -34 -221 -141 -262
-181 -6 -6 -34 -32 -62 -58 -171 -160 -317 -390 -371 -588 -19 -68 -21 -102
-21 -397 l0 -322 34 -104 c65 -197 166 -367 298 -498 231 -231 468 -359 763
-413 86 -16 126 -19 240 -18 422 2 781 165 1060 483 l64 72 -157 112 -157 112
-24 -31 c-42 -55 -174 -177 -235 -218 -286 -195 -694 -216 -994 -52 -201 109
-366 289 -452 491 -91 215 -97 529 -13 752 103 277 341 505 617 590 167 52
377 59 531 19 22 -5 49 -12 60 -14 36 -7 149 -57 219 -98 65 -38 219 -179 276
-253 l25 -31 148 124 148 123 -128 129 c-247 248 -478 365 -798 407 -76 9
-230 12 -310 4z"/>
</g>
</svg>
