<svg id="svg" version="1.1" width="400" height="76.50834403080873" viewBox="0 0 400 76.50834403080873" xmlns="http://www.w3.org/2000/svg" xmlns:xlink="http://www.w3.org/1999/xlink" ><g id="svgg"><path id="path0" d="M53.884 31.791 C 54.874 31.821,56.449 31.821,57.384 31.791 C 58.319 31.761,57.508 31.737,55.583 31.737 C 53.658 31.737,52.894 31.762,53.884 31.791 M255.167 65.885 C 255.167 65.914,255.410 66.158,255.708 66.427 L 256.250 66.917 255.760 66.375 C 255.304 65.870,255.167 65.757,255.167 65.885 M382.167 65.885 C 382.167 65.914,382.410 66.158,382.708 66.427 L 383.250 66.917 382.760 66.375 C 382.304 65.870,382.167 65.757,382.167 65.885 M259.160 73.375 C 259.850 74.111,260.000 74.243,260.000 74.118 C 260.000 74.091,259.644 73.735,259.208 73.326 L 258.417 72.583 259.160 73.375 M386.083 73.333 C 386.441 73.700,386.772 74.000,386.818 74.000 C 386.863 74.000,386.608 73.700,386.250 73.333 C 385.892 72.967,385.562 72.667,385.516 72.667 C 385.470 72.667,385.725 72.967,386.083 73.333 " stroke="none" fill="#000000" fill-rule="evenodd"></path><path id="path1" d="M40.250 10.167 C 40.608 10.533,40.938 10.833,40.984 10.833 C 41.030 10.833,40.775 10.533,40.417 10.167 C 40.059 9.800,39.728 9.500,39.682 9.500 C 39.637 9.500,39.892 9.800,40.250 10.167 M149.740 10.208 L 149.250 10.750 149.792 10.260 C 150.090 9.991,150.333 9.748,150.333 9.719 C 150.333 9.590,150.196 9.703,149.740 10.208 M342.081 30.000 C 342.081 40.679,342.101 45.048,342.125 39.708 C 342.149 34.369,342.149 25.631,342.125 20.292 C 342.101 14.952,342.081 19.321,342.081 30.000 M349.247 30.000 C 349.247 40.679,349.267 45.048,349.292 39.708 C 349.316 34.369,349.316 25.631,349.292 20.292 C 349.267 14.952,349.247 19.321,349.247 30.000 M254.500 65.250 C 254.811 65.571,255.103 65.833,255.149 65.833 C 255.195 65.833,254.978 65.571,254.667 65.250 C 254.356 64.929,254.064 64.667,254.018 64.667 C 253.972 64.667,254.189 64.929,254.500 65.250 M381.500 65.250 C 381.811 65.571,382.103 65.833,382.149 65.833 C 382.195 65.833,381.978 65.571,381.667 65.250 C 381.356 64.929,381.064 64.667,381.018 64.667 C 380.972 64.667,381.189 64.929,381.500 65.250 " stroke="none" fill="#1c1c1c" fill-rule="evenodd"></path><path id="path2" d="M331.733 7.917 C 331.734 9.292,331.759 9.832,331.791 9.117 C 331.822 8.403,331.822 7.278,331.790 6.617 C 331.759 5.957,331.733 6.542,331.733 7.917 M97.875 24.786 C 98.127 24.824,98.540 24.824,98.792 24.786 C 99.044 24.748,98.837 24.717,98.333 24.717 C 97.829 24.717,97.623 24.748,97.875 24.786 M222.545 35.667 C 222.545 36.079,222.578 36.248,222.618 36.042 C 222.657 35.835,222.657 35.498,222.618 35.292 C 222.578 35.085,222.545 35.254,222.545 35.667 M61.042 38.458 C 63.677 38.484,67.990 38.484,70.625 38.458 C 73.260 38.432,71.104 38.411,65.833 38.411 C 60.563 38.411,58.406 38.432,61.042 38.458 M309.875 38.458 C 312.510 38.484,316.823 38.484,319.458 38.458 C 322.094 38.432,319.938 38.411,314.667 38.411 C 309.396 38.411,307.240 38.432,309.875 38.458 M370.667 38.454 C 379.474 38.570,386.628 38.572,386.558 38.458 C 386.515 38.390,382.154 38.350,376.865 38.371 C 371.577 38.392,368.787 38.430,370.667 38.454 M143.736 46.083 C 143.736 47.825,143.761 48.515,143.791 47.616 C 143.821 46.718,143.821 45.293,143.791 44.450 C 143.761 43.607,143.736 44.342,143.736 46.083 M82.292 49.458 C 83.323 49.487,85.010 49.487,86.042 49.458 C 87.073 49.429,86.229 49.405,84.167 49.405 C 82.104 49.405,81.260 49.429,82.292 49.458 M113.625 49.458 C 114.748 49.487,116.585 49.487,117.708 49.458 C 118.831 49.429,117.912 49.405,115.667 49.405 C 113.421 49.405,112.502 49.429,113.625 49.458 M128.637 49.458 C 131.416 49.484,135.916 49.484,138.637 49.458 C 141.357 49.433,139.083 49.412,133.583 49.412 C 128.083 49.412,125.857 49.433,128.637 49.458 M243.301 49.458 C 244.245 49.488,245.745 49.487,246.634 49.457 C 247.523 49.428,246.750 49.403,244.917 49.403 C 243.083 49.404,242.356 49.428,243.301 49.458 M285.884 49.458 C 286.782 49.488,288.207 49.488,289.050 49.457 C 289.893 49.427,289.158 49.403,287.417 49.403 C 285.675 49.403,284.985 49.428,285.884 49.458 M330.875 49.458 C 331.860 49.487,333.473 49.487,334.458 49.458 C 335.444 49.428,334.637 49.404,332.667 49.404 C 330.696 49.404,329.890 49.428,330.875 49.458 M343.958 49.458 C 344.898 49.487,346.435 49.487,347.375 49.458 C 348.315 49.428,347.546 49.404,345.667 49.404 C 343.787 49.404,343.019 49.428,343.958 49.458 M393.199 49.458 C 394.179 49.487,395.829 49.487,396.866 49.458 C 397.902 49.429,397.100 49.404,395.083 49.404 C 393.067 49.404,392.219 49.428,393.199 49.458 " stroke="none" fill="#2d2d2d" fill-rule="evenodd"></path><path id="path3" d="M195.370 16.250 C 195.371 16.433,195.430 16.808,195.500 17.083 C 195.614 17.532,195.628 17.541,195.630 17.167 C 195.632 16.938,195.573 16.563,195.500 16.333 C 195.395 16.007,195.367 15.989,195.370 16.250 M115.881 17.750 C 115.882 18.208,115.915 18.376,115.953 18.123 C 115.991 17.869,115.990 17.494,115.951 17.289 C 115.911 17.084,115.880 17.292,115.881 17.750 M107.240 22.375 L 106.750 22.917 107.292 22.427 C 107.590 22.158,107.833 21.914,107.833 21.885 C 107.833 21.757,107.696 21.870,107.240 22.375 M271.783 24.085 C 271.630 24.405,271.540 24.667,271.582 24.667 C 271.696 24.667,272.202 23.646,272.125 23.570 C 272.089 23.534,271.935 23.766,271.783 24.085 M102.583 24.500 C 102.159 24.683,102.597 24.683,103.167 24.500 C 103.502 24.393,103.518 24.366,103.250 24.362 C 103.067 24.359,102.767 24.421,102.583 24.500 M92.125 24.791 C 93.065 24.821,94.602 24.821,95.542 24.791 C 96.481 24.761,95.712 24.737,93.833 24.737 C 91.954 24.737,91.185 24.761,92.125 24.791 M6.883 26.667 C 6.883 27.171,6.915 27.377,6.953 27.125 C 6.991 26.873,6.991 26.460,6.953 26.208 C 6.915 25.956,6.883 26.162,6.883 26.667 M183.217 26.667 C 183.217 27.171,183.248 27.377,183.286 27.125 C 183.324 26.873,183.324 26.460,183.286 26.208 C 183.248 25.956,183.217 26.162,183.217 26.667 M7.102 30.083 C 7.239 30.696,7.334 30.829,7.331 30.403 C 7.329 30.227,7.252 29.971,7.159 29.833 C 7.036 29.651,7.020 29.718,7.102 30.083 M182.937 29.923 C 182.880 30.072,182.840 30.319,182.848 30.472 C 182.856 30.625,182.928 30.529,183.009 30.258 C 183.166 29.732,183.110 29.472,182.937 29.923 M213.491 31.397 C 213.807 31.728,214.092 32.000,214.124 32.000 C 214.265 32.000,213.551 31.179,213.250 30.996 C 213.067 30.884,213.175 31.065,213.491 31.397 M108.240 33.388 C 108.496 33.725,108.740 34.000,108.781 34.000 C 108.897 34.000,108.175 33.025,107.962 32.893 C 107.858 32.829,107.983 33.052,108.240 33.388 M50.866 38.458 C 51.846 38.487,53.496 38.487,54.532 38.458 C 55.569 38.429,54.767 38.404,52.750 38.404 C 50.733 38.404,49.885 38.428,50.866 38.458 M154.500 38.385 C 154.500 38.414,154.744 38.658,155.042 38.927 L 155.583 39.417 155.094 38.875 C 154.638 38.370,154.500 38.257,154.500 38.385 M299.532 38.458 C 300.513 38.487,302.163 38.487,303.199 38.458 C 304.235 38.429,303.433 38.404,301.417 38.404 C 299.400 38.404,298.552 38.428,299.532 38.458 M361.866 38.458 C 362.846 38.487,364.496 38.487,365.532 38.458 C 366.569 38.429,365.767 38.404,363.750 38.404 C 361.733 38.404,360.885 38.428,361.866 38.458 M50.128 62.454 C 50.428 62.491,50.878 62.490,51.128 62.452 C 51.378 62.414,51.133 62.384,50.583 62.385 C 50.033 62.386,49.828 62.417,50.128 62.454 M117.295 62.454 C 117.594 62.491,118.044 62.490,118.295 62.452 C 118.545 62.414,118.300 62.384,117.750 62.385 C 117.200 62.386,116.995 62.417,117.295 62.454 M222.958 62.451 C 223.165 62.491,223.502 62.491,223.708 62.451 C 223.915 62.411,223.746 62.379,223.333 62.379 C 222.921 62.379,222.752 62.411,222.958 62.451 M238.294 62.451 C 238.501 62.491,238.801 62.490,238.960 62.448 C 239.120 62.406,238.950 62.374,238.583 62.375 C 238.217 62.377,238.086 62.411,238.294 62.451 M272.460 62.451 C 272.668 62.491,272.968 62.490,273.127 62.448 C 273.286 62.406,273.117 62.374,272.750 62.375 C 272.383 62.377,272.253 62.411,272.460 62.451 M329.625 62.451 C 329.831 62.491,330.169 62.491,330.375 62.451 C 330.581 62.411,330.412 62.379,330.000 62.379 C 329.587 62.379,329.419 62.411,329.625 62.451 M365.294 62.451 C 365.501 62.491,365.801 62.490,365.960 62.448 C 366.120 62.406,365.950 62.374,365.583 62.375 C 365.217 62.377,365.086 62.411,365.294 62.451 M134.387 63.667 C 134.387 64.262,134.417 64.506,134.454 64.208 C 134.491 63.910,134.491 63.423,134.454 63.125 C 134.417 62.827,134.387 63.071,134.387 63.667 M142.073 67.000 C 142.073 69.429,142.096 70.423,142.125 69.208 C 142.153 67.994,142.153 66.006,142.125 64.792 C 142.096 63.577,142.073 64.571,142.073 67.000 M159.875 62.782 C 160.035 62.823,160.298 62.823,160.458 62.782 C 160.619 62.740,160.487 62.705,160.167 62.705 C 159.846 62.705,159.715 62.740,159.875 62.782 M177.885 63.750 C 177.886 64.300,177.917 64.505,177.954 64.205 C 177.991 63.906,177.990 63.456,177.952 63.205 C 177.914 62.955,177.884 63.200,177.885 63.750 M50.211 64.786 C 50.464 64.825,50.839 64.824,51.044 64.784 C 51.249 64.744,51.042 64.713,50.583 64.714 C 50.125 64.716,49.957 64.748,50.211 64.786 M117.794 64.785 C 118.001 64.824,118.301 64.823,118.460 64.781 C 118.620 64.739,118.450 64.707,118.083 64.709 C 117.717 64.711,117.586 64.745,117.794 64.785 M281.958 64.789 C 282.348 64.824,282.985 64.824,283.375 64.789 C 283.765 64.754,283.446 64.725,282.667 64.725 C 281.887 64.725,281.569 64.754,281.958 64.789 M286.958 64.789 C 287.348 64.824,287.985 64.824,288.375 64.789 C 288.765 64.754,288.446 64.725,287.667 64.725 C 286.887 64.725,286.569 64.754,286.958 64.789 M338.713 64.789 C 339.152 64.824,339.827 64.823,340.213 64.788 C 340.600 64.754,340.242 64.725,339.417 64.726 C 338.592 64.726,338.275 64.755,338.713 64.789 M342.909 64.877 C 342.865 64.992,342.849 67.448,342.875 70.335 L 342.922 75.583 342.961 70.215 L 343.000 64.847 344.375 64.791 L 345.750 64.735 344.370 64.701 C 343.388 64.676,342.966 64.727,342.909 64.877 M32.740 66.736 C 32.748 68.207,32.798 68.569,33.000 68.624 C 33.179 68.673,33.192 68.651,33.048 68.548 C 32.918 68.456,32.825 67.777,32.788 66.661 L 32.731 64.917 32.740 66.736 M100.390 66.250 C 100.391 66.983,100.420 67.263,100.456 66.871 C 100.491 66.479,100.490 65.879,100.454 65.537 C 100.419 65.196,100.390 65.517,100.390 66.250 M172.724 66.250 C 172.724 66.983,172.754 67.263,172.789 66.871 C 172.824 66.479,172.824 65.879,172.788 65.537 C 172.752 65.196,172.723 65.517,172.724 66.250 M100.397 71.750 C 100.397 72.850,100.424 73.278,100.457 72.702 C 100.490 72.125,100.489 71.225,100.456 70.702 C 100.423 70.178,100.397 70.650,100.397 71.750 M172.730 71.750 C 172.731 72.850,172.758 73.278,172.790 72.702 C 172.823 72.125,172.823 71.225,172.790 70.702 C 172.757 70.178,172.730 70.650,172.730 71.750 M32.634 73.557 C 32.606 74.892,32.636 75.932,32.700 75.867 C 32.838 75.728,32.911 71.355,32.777 71.221 C 32.726 71.170,32.662 72.221,32.634 73.557 M111.652 73.139 C 111.742 73.307,111.946 73.550,112.106 73.680 C 112.286 73.827,112.246 73.710,112.001 73.375 C 111.563 72.777,111.399 72.666,111.652 73.139 M177.883 74.833 C 177.883 75.337,177.915 75.544,177.953 75.292 C 177.991 75.040,177.991 74.627,177.953 74.375 C 177.915 74.123,177.883 74.329,177.883 74.833 " stroke="none" fill="#393939" fill-rule="evenodd"></path><path id="path4" d="M250.937 1.012 C 250.872 1.218,250.637 2.432,249.811 6.833 C 249.716 7.337,249.534 8.237,249.407 8.833 C 249.280 9.429,248.984 11.004,248.749 12.333 C 248.515 13.662,248.248 15.088,248.157 15.500 C 247.882 16.750,247.828 17.020,247.512 18.750 C 246.958 21.781,246.794 22.580,246.653 22.917 C 246.576 23.100,246.496 23.512,246.475 23.833 C 246.453 24.154,246.399 24.488,246.354 24.575 C 246.309 24.662,246.256 24.887,246.235 25.075 C 246.214 25.263,246.121 25.717,246.028 26.083 C 245.935 26.450,245.818 27.017,245.769 27.343 C 245.719 27.669,245.524 28.682,245.335 29.593 C 244.760 32.364,244.325 34.605,243.670 38.167 C 243.577 38.671,243.318 39.983,243.093 41.083 C 242.869 42.183,242.532 43.946,242.345 45.000 C 242.158 46.054,241.900 47.460,241.772 48.125 L 241.539 49.333 245.189 49.333 L 248.839 49.333 248.820 48.875 C 248.810 48.623,248.854 48.229,248.917 48.000 C 248.980 47.771,249.213 46.571,249.434 45.333 C 249.656 44.096,250.025 42.071,250.254 40.833 C 250.483 39.596,250.698 38.358,250.732 38.083 C 250.784 37.665,251.029 36.254,251.411 34.167 C 251.453 33.938,251.754 32.212,252.079 30.333 C 253.656 21.231,253.451 21.935,254.083 23.456 C 254.340 24.076,254.727 24.979,254.942 25.463 C 255.157 25.947,255.333 26.368,255.333 26.399 C 255.333 26.429,255.573 26.971,255.865 27.602 C 256.158 28.233,256.408 28.787,256.421 28.833 C 256.434 28.879,256.524 29.104,256.622 29.333 C 257.981 32.532,258.393 33.469,258.564 33.750 C 258.676 33.933,259.021 34.683,259.330 35.417 C 259.640 36.150,259.946 36.825,260.011 36.917 C 260.077 37.008,260.444 37.833,260.828 38.750 C 261.213 39.667,261.665 40.717,261.833 41.083 C 262.002 41.450,262.455 42.500,262.841 43.417 C 263.227 44.333,263.824 45.683,264.169 46.417 C 264.513 47.150,264.894 48.031,265.014 48.375 C 265.135 48.719,265.294 49.000,265.367 49.000 C 265.440 49.000,265.487 49.056,265.470 49.125 C 265.454 49.194,265.666 49.730,265.942 50.317 L 266.443 51.385 266.888 50.588 C 267.133 50.150,267.333 49.759,267.333 49.719 C 267.333 49.680,267.661 48.958,268.061 48.115 C 268.462 47.273,269.034 46.021,269.332 45.333 C 269.631 44.646,270.203 43.387,270.604 42.537 C 271.005 41.687,271.333 40.956,271.333 40.913 C 271.333 40.798,272.754 37.640,273.582 35.917 C 274.660 33.669,276.184 30.350,277.253 27.917 C 277.777 26.725,278.414 25.300,278.668 24.750 C 278.923 24.200,279.247 23.469,279.390 23.125 C 279.830 22.066,279.805 21.972,280.757 28.333 C 280.818 28.735,281.393 32.395,281.910 35.667 C 282.048 36.537,282.313 38.225,282.500 39.417 C 282.687 40.608,282.948 42.221,283.080 43.000 C 283.212 43.779,283.366 44.753,283.424 45.163 C 283.481 45.574,283.558 45.959,283.596 46.020 C 283.665 46.132,283.708 46.434,283.916 48.292 L 284.033 49.333 287.600 49.333 C 290.887 49.333,291.166 49.310,291.164 49.042 C 291.163 48.881,290.976 47.700,290.749 46.417 C 290.522 45.133,290.219 43.371,290.076 42.500 C 289.934 41.629,289.711 40.354,289.582 39.667 C 289.453 38.979,289.306 38.124,289.254 37.767 C 289.203 37.410,289.014 36.285,288.835 35.267 C 288.655 34.249,288.472 33.192,288.428 32.917 C 288.158 31.255,287.843 29.549,287.766 29.333 C 287.717 29.196,287.642 28.783,287.599 28.417 C 287.556 28.050,287.394 27.037,287.237 26.167 C 287.081 25.296,286.932 24.433,286.907 24.250 C 286.882 24.067,286.849 23.917,286.834 23.917 C 286.785 23.917,286.675 23.253,286.641 22.750 C 286.623 22.475,286.556 22.175,286.493 22.083 C 286.430 21.992,286.377 21.804,286.375 21.667 C 286.373 21.529,286.210 20.554,286.013 19.500 C 285.611 17.352,285.319 15.684,284.245 9.417 C 282.598 -0.192,282.729 0.268,282.076 1.762 C 281.518 3.041,281.191 3.759,280.353 5.551 C 279.976 6.359,279.667 7.050,279.667 7.088 C 279.667 7.126,279.314 7.891,278.884 8.787 C 278.453 9.683,278.094 10.454,278.084 10.500 C 278.075 10.546,277.714 11.323,277.283 12.227 C 276.853 13.131,276.500 13.911,276.500 13.959 C 276.500 14.007,276.195 14.682,275.823 15.458 C 275.450 16.235,274.748 17.781,274.261 18.893 C 273.155 21.424,272.507 22.840,271.582 24.750 C 270.396 27.200,269.333 29.488,269.333 29.593 C 269.333 29.647,268.952 30.492,268.486 31.471 C 268.020 32.449,267.449 33.719,267.218 34.293 C 266.661 35.673,266.566 35.695,266.074 34.554 C 265.844 34.020,265.587 33.433,265.504 33.250 C 265.054 32.260,264.451 30.872,264.074 29.954 C 263.839 29.384,263.463 28.521,263.240 28.037 C 263.016 27.553,262.833 27.124,262.833 27.084 C 262.833 27.043,262.644 26.596,262.413 26.090 C 262.181 25.584,262.011 25.151,262.035 25.127 C 262.059 25.103,261.920 24.821,261.727 24.500 C 261.533 24.179,261.096 23.279,260.756 22.500 C 260.416 21.721,259.957 20.688,259.736 20.204 C 259.514 19.720,259.333 19.284,259.333 19.235 C 259.333 19.186,259.033 18.509,258.667 17.730 C 258.300 16.951,258.000 16.276,258.000 16.231 C 258.000 16.186,257.841 15.796,257.648 15.366 C 257.454 14.935,257.146 14.250,256.963 13.844 C 256.779 13.437,256.533 12.837,256.416 12.510 C 256.298 12.184,255.828 11.129,255.370 10.167 C 253.875 7.017,253.333 5.844,253.333 5.753 C 253.333 5.703,253.175 5.308,252.981 4.873 C 252.547 3.902,252.310 3.348,251.824 2.167 C 251.372 1.067,251.051 0.650,250.937 1.012 M66.000 1.483 C 66.000 1.580,65.694 2.318,65.320 3.122 C 64.946 3.926,64.467 4.958,64.255 5.417 C 64.044 5.875,63.599 6.823,63.267 7.524 C 62.626 8.876,62.626 8.888,63.252 10.250 C 63.463 10.708,64.047 12.058,64.550 13.250 C 65.053 14.442,65.651 15.829,65.879 16.333 C 66.107 16.837,66.648 18.075,67.081 19.083 C 67.514 20.092,68.000 21.179,68.161 21.500 C 68.732 22.641,69.500 24.306,69.500 24.404 C 69.500 24.459,69.646 24.822,69.824 25.210 C 70.003 25.599,70.424 26.592,70.761 27.417 C 71.098 28.242,71.508 29.217,71.673 29.583 C 71.838 29.950,72.124 30.606,72.310 31.042 L 72.648 31.833 62.324 31.833 L 52.001 31.833 51.018 33.875 C 50.478 34.998,49.987 36.029,49.927 36.167 C 49.867 36.304,49.607 36.829,49.349 37.333 L 48.880 38.250 62.232 38.294 L 75.583 38.338 76.486 40.544 C 76.983 41.757,77.449 42.830,77.522 42.927 C 77.596 43.024,77.926 43.805,78.257 44.661 C 78.817 46.112,79.570 47.858,80.055 48.833 L 80.263 49.250 84.048 49.295 C 86.130 49.319,87.833 49.308,87.833 49.269 C 87.833 49.230,87.600 48.684,87.315 48.057 C 87.030 47.430,86.434 46.073,85.989 45.043 C 85.544 44.012,84.906 42.587,84.571 41.876 C 84.236 41.165,83.679 39.983,83.334 39.250 C 82.988 38.517,82.349 37.092,81.914 36.083 C 81.479 35.075,80.918 33.800,80.667 33.250 C 80.416 32.700,79.967 31.688,79.669 31.000 C 78.506 28.316,78.118 27.458,77.146 25.417 C 76.840 24.775,76.608 24.194,76.629 24.125 C 76.650 24.056,76.592 24.000,76.500 24.000 C 76.408 24.000,76.333 23.925,76.333 23.834 C 76.333 23.743,75.992 22.900,75.574 21.959 C 75.156 21.019,74.715 20.025,74.594 19.750 C 73.385 17.007,73.100 16.388,72.957 16.208 C 72.867 16.094,72.832 16.000,72.880 16.000 C 72.928 16.000,72.631 15.269,72.220 14.375 C 71.810 13.481,71.433 12.619,71.384 12.458 C 71.335 12.298,71.241 12.167,71.175 12.167 C 71.109 12.167,71.053 12.073,71.049 11.958 C 71.046 11.844,70.652 10.925,70.174 9.917 C 69.695 8.908,69.118 7.633,68.891 7.083 C 68.664 6.533,68.252 5.596,67.975 5.000 C 67.699 4.404,67.235 3.360,66.945 2.680 C 66.478 1.585,66.000 0.980,66.000 1.483 M314.667 1.480 C 314.667 1.576,314.254 2.519,313.750 3.576 C 313.246 4.633,312.833 5.530,312.833 5.570 C 312.833 5.665,311.708 8.164,311.496 8.540 C 311.373 8.757,311.503 9.237,312.015 10.457 C 312.390 11.351,312.873 12.533,313.087 13.083 C 313.946 15.287,314.505 16.529,314.746 16.770 C 314.886 16.910,315.000 17.103,315.000 17.200 C 315.000 17.297,315.222 17.835,315.493 18.396 C 316.074 19.600,318.352 24.776,319.242 26.917 C 319.586 27.742,320.195 29.167,320.597 30.083 L 321.327 31.750 310.986 31.793 L 300.644 31.836 299.924 33.376 C 298.767 35.852,297.706 38.246,297.746 38.294 C 297.766 38.318,303.723 38.337,310.984 38.335 L 324.185 38.333 324.529 39.125 C 324.719 39.560,325.052 40.313,325.270 40.797 C 325.488 41.281,325.667 41.710,325.667 41.750 C 325.667 41.791,325.851 42.220,326.076 42.704 C 326.301 43.188,326.631 43.958,326.808 44.417 C 327.136 45.263,327.642 46.411,328.516 48.292 L 329.000 49.333 332.734 49.333 L 336.469 49.333 336.377 48.958 C 336.327 48.752,336.228 48.508,336.158 48.417 C 336.087 48.325,335.382 46.750,334.591 44.917 C 333.011 41.256,332.965 41.154,331.828 38.750 C 331.395 37.833,330.986 36.909,330.921 36.695 C 330.856 36.482,330.472 35.638,330.068 34.820 C 329.664 34.002,329.333 33.291,329.333 33.239 C 329.333 33.188,329.137 32.719,328.898 32.198 C 328.535 31.407,327.329 28.696,326.215 26.167 C 326.074 25.846,325.676 24.983,325.330 24.250 C 324.344 22.155,324.000 21.364,324.000 21.190 C 324.000 21.101,323.944 21.003,323.875 20.972 C 323.806 20.942,323.548 20.429,323.302 19.833 C 322.662 18.287,321.349 15.325,321.083 14.827 C 320.958 14.595,320.709 14.032,320.528 13.577 C 320.348 13.122,319.904 12.112,319.541 11.333 C 319.178 10.554,318.876 9.856,318.871 9.783 C 318.865 9.709,318.740 9.466,318.593 9.241 C 318.446 9.017,318.370 8.833,318.425 8.833 C 318.479 8.833,318.406 8.715,318.262 8.571 C 318.118 8.427,318.000 8.199,318.000 8.063 C 318.000 7.928,317.869 7.577,317.708 7.283 C 317.548 6.990,316.892 5.555,316.250 4.095 C 315.241 1.800,314.667 0.851,314.667 1.480 M376.849 1.875 C 376.721 2.173,376.373 2.942,376.076 3.583 C 375.779 4.225,375.350 5.162,375.122 5.667 C 374.894 6.171,374.467 7.092,374.172 7.714 L 373.637 8.844 374.421 10.714 C 374.852 11.742,375.337 12.883,375.498 13.250 C 375.659 13.617,376.041 14.517,376.347 15.250 C 376.652 15.983,376.949 16.621,377.006 16.667 C 377.062 16.712,377.469 17.612,377.909 18.667 C 378.349 19.721,378.791 20.733,378.890 20.917 C 378.990 21.100,379.081 21.287,379.092 21.333 C 379.104 21.379,379.231 21.679,379.375 22.000 C 379.519 22.321,379.641 22.641,379.646 22.711 C 379.651 22.782,379.915 23.344,380.232 23.961 C 380.548 24.578,380.895 25.308,381.003 25.583 C 381.110 25.858,381.739 27.358,382.401 28.917 L 383.605 31.750 373.303 31.793 L 363.002 31.836 361.918 34.075 C 361.321 35.307,360.833 36.387,360.833 36.477 C 360.833 36.566,360.777 36.664,360.708 36.694 C 360.640 36.725,360.416 37.106,360.211 37.541 L 359.839 38.331 373.202 38.374 L 386.566 38.417 387.138 39.750 C 387.821 41.340,388.017 41.789,388.565 43.011 C 388.793 43.521,389.138 44.346,389.331 44.844 C 389.671 45.722,389.867 46.181,390.501 47.583 C 390.667 47.950,390.857 48.438,390.924 48.667 C 391.112 49.315,391.193 49.328,395.123 49.331 L 398.828 49.333 398.513 48.542 C 398.129 47.577,395.441 41.573,394.531 39.646 C 394.169 38.878,393.757 37.987,393.617 37.667 C 393.477 37.346,393.127 36.566,392.839 35.934 C 392.551 35.302,392.215 34.515,392.092 34.184 C 391.969 33.854,391.484 32.721,391.014 31.667 C 390.116 29.654,390.047 29.503,389.111 27.500 C 388.790 26.813,388.528 26.212,388.529 26.167 C 388.529 26.121,388.261 25.577,387.933 24.958 C 387.604 24.340,387.367 23.833,387.405 23.833 C 387.442 23.833,387.217 23.306,386.903 22.662 C 386.590 22.018,386.333 21.457,386.333 21.416 C 386.333 21.260,384.124 16.407,383.962 16.208 C 383.869 16.094,383.846 16.000,383.911 16.000 C 383.975 16.000,383.835 15.653,383.598 15.229 C 383.361 14.805,383.167 14.397,383.167 14.322 C 383.167 14.201,382.623 12.985,381.420 10.417 C 381.206 9.958,380.697 8.833,380.289 7.917 C 379.881 7.000,379.309 5.725,379.017 5.083 C 378.725 4.442,378.245 3.360,377.951 2.680 C 377.333 1.250,377.169 1.130,376.849 1.875 M20.833 3.352 C 20.146 3.432,19.471 3.545,19.333 3.602 C 19.196 3.659,18.830 3.731,18.521 3.763 C 18.212 3.795,17.687 3.914,17.354 4.027 C 17.022 4.140,16.675 4.239,16.583 4.248 C 16.074 4.296,15.000 4.704,15.000 4.850 C 15.000 4.943,14.928 4.975,14.841 4.921 C 14.523 4.725,10.824 6.757,9.570 7.816 C 9.287 8.055,8.861 8.402,8.622 8.588 C 5.570 10.959,2.638 14.948,1.274 18.583 C -1.005 24.661,-0.119 34.141,3.177 38.932 C 3.446 39.323,3.667 39.696,3.667 39.760 C 3.667 39.824,4.181 40.487,4.810 41.234 C 5.804 42.414,6.428 43.024,8.500 44.837 C 8.729 45.038,9.254 45.433,9.667 45.716 C 10.079 45.999,10.442 46.291,10.472 46.365 C 10.503 46.439,10.628 46.500,10.750 46.500 C 10.872 46.500,10.997 46.560,11.028 46.633 C 11.125 46.865,14.032 48.274,15.500 48.801 C 19.776 50.334,24.882 50.493,29.833 49.246 C 30.429 49.096,31.087 48.933,31.294 48.884 C 31.502 48.834,31.712 48.727,31.762 48.647 C 31.812 48.566,31.965 48.500,32.101 48.500 C 32.435 48.500,34.755 47.406,35.583 46.858 C 35.950 46.615,36.454 46.311,36.704 46.183 C 36.954 46.054,37.418 45.716,37.737 45.433 C 38.055 45.149,38.660 44.623,39.082 44.264 C 40.467 43.086,42.164 41.316,42.469 40.732 C 42.638 40.409,42.514 40.285,40.952 39.216 C 40.016 38.576,38.789 37.731,38.226 37.339 L 37.202 36.627 36.568 37.355 C 34.978 39.183,32.008 41.667,31.413 41.667 C 31.352 41.667,31.102 41.801,30.859 41.966 C 30.504 42.206,28.516 42.930,27.750 43.098 C 27.410 43.173,26.570 43.352,26.167 43.436 C 25.560 43.561,21.518 43.571,20.833 43.448 C 20.512 43.390,20.000 43.304,19.695 43.257 C 19.390 43.209,19.053 43.115,18.945 43.048 C 18.838 42.981,18.673 42.914,18.578 42.900 C 17.603 42.751,14.178 40.880,12.934 39.818 C 11.670 38.738,10.570 37.516,9.544 36.051 C 9.009 35.289,7.833 32.836,7.833 32.484 C 7.833 32.320,7.758 32.140,7.667 32.083 C 7.575 32.027,7.500 31.792,7.500 31.563 C 7.500 31.333,7.420 30.996,7.323 30.813 C 6.642 29.542,6.904 22.304,7.669 21.250 C 7.735 21.158,7.883 20.783,7.996 20.417 C 8.568 18.570,10.249 16.077,12.167 14.230 C 13.973 12.490,14.711 12.031,17.833 10.703 C 18.299 10.505,20.227 10.060,21.250 9.915 C 23.504 9.595,27.848 10.056,29.500 10.791 C 31.473 11.668,32.219 12.073,33.182 12.785 C 34.332 13.636,35.678 14.940,36.725 16.216 L 37.367 16.999 37.808 16.676 C 38.051 16.498,38.451 16.179,38.696 15.968 C 38.942 15.756,39.423 15.358,39.765 15.083 C 40.107 14.808,40.585 14.396,40.826 14.167 C 41.067 13.938,41.515 13.540,41.822 13.283 C 42.531 12.689,42.446 12.506,40.592 10.611 C 36.871 6.810,32.545 4.392,28.167 3.667 C 27.479 3.553,26.767 3.428,26.583 3.390 C 25.872 3.238,22.021 3.213,20.833 3.352 M165.333 3.210 C 165.287 3.254,164.725 3.333,164.083 3.385 C 158.771 3.813,153.961 6.184,149.747 10.450 C 147.756 12.465,147.637 12.689,148.268 13.223 C 148.533 13.447,148.985 13.844,149.272 14.107 C 149.879 14.662,150.971 15.581,152.014 16.416 L 152.750 17.004 153.417 16.213 C 155.396 13.865,158.359 11.515,159.892 11.076 C 160.089 11.020,160.475 10.874,160.750 10.752 C 162.314 10.060,166.986 9.582,168.917 9.917 C 170.295 10.156,171.962 10.537,172.333 10.699 C 173.680 11.285,173.994 11.429,174.750 11.807 C 176.114 12.490,176.756 12.992,178.453 14.706 C 180.137 16.407,181.615 18.681,182.165 20.417 C 182.282 20.783,182.436 21.158,182.508 21.250 C 182.579 21.342,182.647 21.492,182.657 21.583 C 182.668 21.675,182.753 22.037,182.848 22.387 C 183.414 24.489,183.370 29.287,182.769 31.054 C 182.619 31.496,182.538 31.927,182.591 32.012 C 182.643 32.097,182.607 32.167,182.510 32.167 C 182.413 32.167,182.333 32.305,182.333 32.474 C 182.333 34.343,178.358 39.366,175.599 40.983 C 175.224 41.203,174.804 41.472,174.667 41.581 C 174.306 41.868,171.891 42.820,171.651 42.770 C 171.596 42.759,171.444 42.839,171.312 42.948 C 171.074 43.146,170.678 43.251,169.417 43.450 C 168.639 43.573,164.610 43.562,164.000 43.436 C 163.644 43.362,163.237 43.275,162.417 43.099 C 161.934 42.995,159.727 42.261,159.583 42.156 C 159.492 42.090,159.042 41.830,158.583 41.580 C 156.909 40.666,155.320 39.316,153.697 37.430 L 152.991 36.609 151.954 37.336 C 151.383 37.736,150.150 38.583,149.214 39.219 C 147.669 40.268,147.528 40.407,147.692 40.714 C 148.036 41.357,149.701 43.110,151.050 44.250 C 151.484 44.617,152.090 45.142,152.396 45.418 C 152.702 45.693,153.170 46.031,153.435 46.168 C 153.700 46.305,154.217 46.615,154.583 46.858 C 155.412 47.406,157.732 48.500,158.066 48.500 C 158.202 48.500,158.354 48.566,158.404 48.647 C 158.454 48.727,158.665 48.834,158.873 48.884 C 159.080 48.933,159.737 49.096,160.333 49.246 C 163.345 50.005,167.302 50.299,169.750 49.946 C 173.173 49.452,178.788 47.471,179.139 46.633 C 179.169 46.560,179.294 46.500,179.417 46.500 C 179.539 46.500,179.664 46.442,179.694 46.370 C 179.725 46.299,180.172 45.943,180.687 45.579 C 187.219 40.963,190.368 34.373,190.121 25.833 C 189.894 17.933,185.928 10.979,179.359 6.961 C 178.870 6.662,178.195 6.245,177.859 6.036 C 176.862 5.412,175.617 4.845,175.459 4.942 C 175.378 4.992,175.185 4.918,175.030 4.777 C 174.217 4.041,165.870 2.693,165.333 3.210 M205.917 3.420 C 204.141 3.808,203.590 3.979,203.530 4.159 C 203.498 4.256,203.404 4.294,203.321 4.243 C 202.964 4.022,199.919 6.068,198.577 7.429 C 196.303 9.737,194.985 13.662,195.532 16.500 C 195.903 18.429,196.088 19.007,196.729 20.240 C 197.377 21.487,199.496 24.000,199.899 24.000 C 199.989 24.000,200.230 24.158,200.434 24.350 C 200.991 24.873,205.565 27.244,206.667 27.580 C 206.896 27.650,207.158 27.764,207.250 27.832 C 207.342 27.901,207.717 28.051,208.083 28.166 C 208.844 28.404,211.912 29.939,212.216 30.233 C 212.326 30.340,212.679 30.610,213.000 30.832 C 213.321 31.054,213.669 31.352,213.775 31.493 C 213.880 31.634,214.120 31.926,214.309 32.142 C 214.498 32.358,214.776 32.883,214.927 33.309 C 215.078 33.735,215.279 34.247,215.373 34.447 C 215.789 35.331,215.168 39.833,214.631 39.833 C 214.559 39.833,214.500 39.949,214.500 40.091 C 214.500 40.523,212.120 42.781,211.527 42.911 C 211.237 42.974,211.000 43.100,211.000 43.190 C 211.000 43.280,210.927 43.308,210.837 43.252 C 210.747 43.197,210.503 43.243,210.295 43.356 C 209.793 43.628,206.661 43.695,206.349 43.441 C 206.221 43.336,206.089 43.270,206.057 43.295 C 205.740 43.537,203.855 42.536,202.861 41.599 C 201.780 40.578,200.667 37.978,200.667 36.473 C 200.667 36.225,200.596 35.835,200.509 35.607 L 200.351 35.193 199.384 35.432 C 198.852 35.564,198.203 35.706,197.941 35.747 C 197.679 35.788,197.329 35.865,197.163 35.918 C 196.996 35.971,196.685 36.047,196.472 36.087 C 193.740 36.601,193.500 36.693,193.500 37.219 C 193.500 37.842,194.309 40.962,194.589 41.417 C 194.701 41.600,194.842 41.956,194.900 42.208 C 194.958 42.460,195.084 42.667,195.180 42.667 C 195.275 42.667,195.312 42.733,195.262 42.814 C 195.211 42.896,195.282 43.055,195.419 43.168 C 195.555 43.281,195.667 43.477,195.667 43.604 C 195.667 43.730,195.724 43.833,195.794 43.833 C 195.864 43.833,195.995 43.972,196.085 44.142 C 197.412 46.631,201.011 49.162,204.083 49.766 C 205.810 50.105,206.536 50.162,208.416 50.109 C 210.419 50.051,211.839 49.816,213.250 49.306 C 214.189 48.967,216.167 47.952,216.167 47.809 C 216.167 47.731,216.266 47.667,216.388 47.667 C 216.509 47.667,217.190 47.129,217.900 46.472 C 224.391 40.470,224.007 29.772,217.138 25.243 C 216.526 24.840,215.977 24.431,215.918 24.336 C 215.859 24.240,215.740 24.204,215.655 24.257 C 215.570 24.310,215.500 24.273,215.500 24.175 C 215.500 23.998,211.816 22.167,211.460 22.167 C 211.356 22.167,210.967 22.024,210.594 21.849 C 210.222 21.674,209.054 21.186,208.000 20.763 C 203.413 18.925,201.838 16.791,202.764 13.672 C 203.727 10.430,208.866 8.731,212.344 10.505 C 213.061 10.871,214.667 12.351,214.667 12.646 C 214.667 12.749,214.728 12.833,214.803 12.833 C 214.877 12.833,215.103 13.127,215.305 13.485 C 215.710 14.205,215.864 14.235,216.589 13.729 C 216.861 13.539,217.592 13.091,218.214 12.734 C 219.215 12.158,220.066 11.659,221.062 11.066 C 221.364 10.887,221.233 10.282,220.832 10.000 C 220.766 9.954,220.597 9.692,220.456 9.417 C 219.197 6.972,214.732 3.827,211.927 3.410 C 210.491 3.196,206.910 3.202,205.917 3.420 M90.451 4.112 C 90.398 4.197,90.369 5.688,90.386 7.425 L 90.417 10.583 96.750 10.675 C 104.037 10.779,104.760 10.904,106.794 12.401 C 110.657 15.245,109.400 22.632,104.833 23.921 C 104.787 23.934,104.553 24.027,104.312 24.127 C 103.506 24.463,102.538 24.671,102.266 24.566 C 102.117 24.509,101.890 24.551,101.760 24.658 C 101.631 24.766,101.425 24.840,101.304 24.824 C 101.183 24.807,98.663 24.803,95.704 24.814 L 90.326 24.833 90.371 27.792 L 90.417 30.750 94.454 30.795 C 98.440 30.839,98.494 30.844,98.689 31.211 C 98.797 31.416,99.029 31.709,99.204 31.862 C 99.379 32.016,99.504 32.166,99.483 32.196 C 99.420 32.283,100.224 33.457,103.465 38.011 C 103.950 38.692,104.813 39.934,105.382 40.769 C 105.951 41.604,106.744 42.729,107.145 43.269 C 107.545 43.809,108.634 45.375,109.563 46.750 L 111.254 49.250 115.551 49.294 L 119.849 49.339 119.133 48.301 C 118.739 47.730,118.285 47.114,118.125 46.933 C 117.965 46.752,117.833 46.554,117.833 46.493 C 117.833 46.432,117.665 46.189,117.458 45.954 C 117.252 45.718,116.910 45.276,116.697 44.971 C 116.132 44.160,114.530 41.945,114.364 41.744 C 114.285 41.649,113.738 40.899,113.149 40.077 C 111.994 38.467,111.951 38.405,110.846 36.813 C 110.441 36.228,110.010 35.690,109.888 35.617 C 109.766 35.543,109.667 35.414,109.667 35.330 C 109.667 35.245,109.293 34.705,108.836 34.130 C 107.892 32.940,105.957 30.150,106.033 30.088 C 106.061 30.065,106.533 29.911,107.083 29.744 C 109.849 28.908,111.965 27.342,113.609 24.916 C 114.339 23.840,115.063 22.500,114.916 22.500 C 114.866 22.500,114.934 22.331,115.066 22.125 C 115.199 21.919,115.351 21.460,115.406 21.106 C 115.460 20.751,115.539 20.405,115.581 20.337 C 115.911 19.804,115.932 15.647,115.611 14.657 C 115.478 14.250,115.366 13.804,115.361 13.667 C 115.316 12.332,113.505 9.302,111.863 7.817 C 111.009 7.044,108.230 5.393,107.927 5.479 C 107.874 5.494,107.606 5.391,107.332 5.249 C 107.058 5.107,106.833 5.028,106.833 5.072 C 106.833 5.116,106.515 5.039,106.125 4.902 C 105.735 4.764,105.154 4.611,104.833 4.561 C 104.513 4.511,103.912 4.398,103.500 4.310 C 102.477 4.092,90.575 3.911,90.451 4.112 M123.433 4.141 C 123.383 4.222,123.358 14.405,123.379 26.769 L 123.417 49.250 133.545 49.293 L 143.674 49.336 143.629 46.043 L 143.583 42.750 137.250 42.711 C 133.767 42.690,130.804 42.671,130.667 42.669 C 130.446 42.667,130.417 40.411,130.417 23.375 L 130.417 4.083 126.970 4.038 C 125.075 4.014,123.483 4.060,123.433 4.141 M331.833 7.333 L 331.833 10.667 336.999 10.667 L 342.165 10.667 342.208 29.958 L 342.250 49.250 345.708 49.295 L 349.167 49.340 349.167 30.003 L 349.167 10.667 354.333 10.667 L 359.500 10.667 359.500 7.333 L 359.500 4.000 345.667 4.000 L 331.833 4.000 331.833 7.333 M18.603 61.953 C 18.432 62.124,17.000 65.151,17.000 65.342 C 17.000 65.429,16.925 65.500,16.833 65.500 C 16.742 65.500,16.680 65.556,16.696 65.625 C 16.712 65.694,16.337 66.567,15.863 67.565 C 15.388 68.563,15.000 69.402,15.000 69.430 C 15.000 69.458,14.582 70.366,14.071 71.449 C 13.560 72.531,12.985 73.792,12.792 74.250 C 12.600 74.708,12.373 75.176,12.286 75.290 C 11.906 75.789,12.291 76.000,13.578 76.000 L 14.833 76.000 15.588 74.417 L 16.342 72.833 18.749 72.833 L 21.156 72.833 21.598 73.792 C 21.842 74.319,22.177 75.012,22.344 75.333 L 22.648 75.917 23.991 75.965 C 24.729 75.992,25.333 75.946,25.333 75.863 C 25.333 75.727,24.873 74.647,23.989 72.710 C 23.812 72.322,23.667 71.971,23.667 71.930 C 23.667 71.890,23.450 71.383,23.186 70.803 C 22.922 70.224,22.312 68.850,21.831 67.750 C 21.350 66.650,20.800 65.450,20.610 65.083 C 20.421 64.717,20.259 64.379,20.251 64.333 C 20.244 64.287,19.982 63.706,19.670 63.042 C 19.140 61.912,18.894 61.662,18.603 61.953 M251.000 68.750 L 251.000 75.667 252.083 75.667 L 253.167 75.667 253.171 71.292 L 253.175 66.917 254.629 68.424 C 255.429 69.253,257.501 71.407,259.233 73.211 C 260.965 75.014,262.446 76.450,262.524 76.402 C 262.603 76.353,262.667 73.245,262.667 69.493 L 262.667 62.673 262.276 62.575 C 262.061 62.521,261.592 62.501,261.234 62.530 L 260.583 62.583 260.500 67.060 L 260.417 71.538 259.510 70.560 C 259.011 70.023,257.173 68.094,255.426 66.274 C 253.679 64.455,252.015 62.711,251.728 62.399 C 251.440 62.088,251.159 61.833,251.103 61.833 C 251.046 61.833,251.000 64.946,251.000 68.750 M378.000 68.750 L 378.000 75.667 379.083 75.667 L 380.167 75.667 380.171 71.292 L 380.175 66.917 381.629 68.424 C 382.429 69.253,384.501 71.407,386.233 73.211 C 387.965 75.014,389.446 76.450,389.524 76.402 C 389.603 76.353,389.667 73.245,389.667 69.493 L 389.667 62.673 389.276 62.575 C 389.061 62.521,388.592 62.501,388.234 62.530 L 387.583 62.583 387.500 67.060 L 387.417 71.538 386.510 70.560 C 386.011 70.023,384.173 68.094,382.426 66.274 C 380.679 64.455,379.015 62.711,378.728 62.399 C 378.440 62.088,378.159 61.833,378.103 61.833 C 378.046 61.833,378.000 64.946,378.000 68.750 M48.478 62.633 C 46.509 63.133,44.338 65.192,43.806 67.065 C 43.698 67.442,43.578 67.862,43.539 68.000 C 42.807 70.560,44.509 74.127,47.080 75.420 C 48.973 76.372,51.855 76.394,53.708 75.471 L 54.333 75.160 54.333 73.908 C 54.333 72.534,54.119 72.239,53.436 72.670 C 51.581 73.843,51.535 73.862,50.558 73.875 C 48.863 73.897,47.183 72.799,46.466 71.201 C 46.153 70.504,46.052 68.352,46.312 67.917 C 46.367 67.825,46.418 67.712,46.426 67.667 C 46.842 65.267,50.320 63.992,52.654 65.382 C 54.118 66.255,54.239 66.201,54.298 64.656 L 54.346 63.399 53.548 63.048 C 52.028 62.380,50.098 62.222,48.478 62.633 M115.846 62.611 C 114.579 62.934,112.000 64.692,112.000 65.233 C 112.000 65.322,111.861 65.550,111.692 65.739 C 110.813 66.721,110.433 69.336,110.903 71.167 C 111.884 74.995,116.238 77.131,120.250 75.752 C 121.495 75.324,121.667 75.110,121.667 73.988 C 121.667 72.390,121.399 72.156,120.422 72.901 C 116.865 75.614,112.134 72.079,113.592 67.799 C 114.343 65.597,117.145 64.065,118.899 64.897 C 119.211 65.045,119.517 65.167,119.578 65.167 C 119.640 65.167,120.007 65.385,120.394 65.651 C 121.411 66.351,121.667 66.154,121.667 64.675 C 121.667 63.563,121.652 63.525,121.125 63.215 C 119.875 62.481,117.445 62.203,115.846 62.611 M195.921 62.493 C 195.867 62.580,195.731 62.620,195.620 62.581 C 195.508 62.542,195.124 62.714,194.766 62.963 C 193.086 64.134,192.900 65.559,194.158 67.617 L 194.484 68.151 193.784 68.700 C 189.074 72.394,193.611 78.255,198.656 74.994 C 199.816 74.244,199.613 74.210,200.540 75.319 C 200.787 75.616,201.017 75.667,202.101 75.667 L 203.372 75.667 203.091 75.239 C 202.937 75.004,202.707 74.685,202.579 74.531 C 201.042 72.673,201.052 72.718,201.986 71.678 C 202.629 70.963,202.627 70.855,201.950 70.199 C 201.241 69.512,201.157 69.523,200.429 70.413 L 199.817 71.159 199.065 70.236 C 198.651 69.728,198.167 69.167,197.990 68.990 C 197.561 68.561,197.582 68.365,198.081 68.138 C 198.551 67.923,199.597 66.470,199.754 65.814 C 200.026 64.677,198.747 62.667,197.753 62.667 C 197.533 62.667,197.307 62.592,197.250 62.500 C 197.119 62.287,196.052 62.282,195.921 62.493 M222.444 62.442 C 222.429 62.457,222.154 62.512,221.833 62.565 C 218.461 63.126,216.110 66.251,216.374 69.822 C 216.712 74.403,221.620 77.251,225.908 75.354 L 226.667 75.019 226.667 73.740 L 226.667 72.462 226.208 72.764 C 223.747 74.387,221.647 74.335,219.918 72.607 C 215.982 68.671,220.893 62.242,225.557 65.226 C 226.079 65.560,226.543 65.833,226.587 65.833 C 226.631 65.833,226.667 65.284,226.667 64.613 L 226.667 63.392 225.958 63.040 C 225.100 62.612,222.698 62.204,222.444 62.442 M236.967 62.610 C 229.712 64.401,230.098 74.634,237.466 75.851 C 244.803 77.062,248.429 67.286,242.074 63.427 C 241.392 63.013,240.833 62.704,240.833 62.740 C 240.833 62.777,240.552 62.728,240.208 62.632 C 239.340 62.390,237.898 62.380,236.967 62.610 M271.727 62.495 C 271.639 62.583,271.540 62.607,271.095 62.646 C 270.964 62.657,270.758 62.765,270.637 62.884 C 270.516 63.004,270.293 63.149,270.143 63.206 C 269.780 63.343,269.006 64.368,268.918 64.829 C 268.879 65.029,268.800 65.342,268.743 65.523 C 268.326 66.836,269.511 68.355,271.718 69.338 C 274.197 70.441,274.799 71.173,274.348 72.537 C 273.646 74.665,270.827 74.308,270.398 72.037 C 270.321 71.633,270.223 71.511,270.022 71.571 C 269.872 71.615,269.390 71.740,268.950 71.848 C 267.290 72.255,268.875 75.113,271.126 75.771 C 275.303 76.992,278.537 71.991,275.473 69.050 C 274.989 68.586,272.611 67.333,272.213 67.333 C 271.124 67.333,270.607 65.404,271.542 64.828 C 272.413 64.291,273.558 64.415,274.171 65.114 C 274.758 65.782,274.651 65.779,275.575 65.155 C 276.444 64.568,276.427 64.409,275.393 63.502 C 274.445 62.669,272.176 62.046,271.727 62.495 M328.290 62.599 C 323.266 63.895,321.467 70.165,325.035 73.938 C 325.501 74.431,325.977 74.833,326.094 74.833 C 326.210 74.833,326.331 74.908,326.361 74.998 C 326.692 75.980,330.881 76.194,332.733 75.324 L 333.500 74.963 333.500 73.843 C 333.500 72.427,333.467 72.403,332.480 73.082 C 328.478 75.835,323.616 71.346,325.852 66.963 C 326.236 66.210,327.169 65.167,327.457 65.167 C 327.572 65.167,327.667 65.099,327.667 65.017 C 327.667 64.047,332.439 64.624,333.086 65.671 C 333.325 66.057,333.500 65.575,333.500 64.531 L 333.500 63.415 332.625 63.010 C 332.144 62.787,331.600 62.582,331.417 62.554 C 330.500 62.414,328.919 62.437,328.290 62.599 M363.967 62.610 C 356.712 64.401,357.098 74.634,364.466 75.851 C 371.803 77.062,375.429 67.286,369.074 63.427 C 368.392 63.013,367.833 62.704,367.833 62.740 C 367.833 62.777,367.552 62.728,367.208 62.632 C 366.340 62.390,364.898 62.380,363.967 62.610 M30.076 62.709 C 30.032 62.824,30.016 65.842,30.040 69.417 L 30.083 75.917 31.333 75.917 L 32.583 75.917 32.667 73.500 L 32.750 71.083 33.387 72.125 C 33.738 72.699,34.115 73.261,34.224 73.375 C 34.334 73.490,34.705 74.011,35.048 74.533 C 36.017 76.005,36.007 76.000,37.595 76.000 C 38.581 76.000,39.000 75.940,39.000 75.799 C 39.000 75.577,37.675 73.616,37.465 73.528 C 37.393 73.497,37.333 73.399,37.333 73.310 C 37.333 73.220,36.883 72.556,36.333 71.833 C 35.163 70.296,35.203 70.428,35.832 70.167 C 38.372 69.115,38.567 64.703,36.133 63.335 C 34.917 62.651,30.282 62.172,30.076 62.709 M60.278 62.611 C 60.217 62.672,60.167 65.713,60.167 69.368 L 60.167 76.014 61.458 75.965 L 62.750 75.917 62.795 72.875 L 62.841 69.833 65.250 69.833 L 67.659 69.833 67.705 72.875 L 67.750 75.917 69.000 75.917 L 70.250 75.917 70.296 69.583 C 70.353 61.828,70.476 62.473,68.953 62.534 L 67.750 62.583 67.704 65.125 L 67.658 67.667 65.246 67.667 L 62.833 67.667 62.833 65.283 C 62.833 63.652,62.770 62.837,62.633 62.700 C 62.424 62.491,60.472 62.417,60.278 62.611 M76.743 62.709 C 76.699 62.824,76.682 65.842,76.706 69.417 L 76.750 75.917 77.806 75.967 C 78.441 75.997,78.956 75.939,79.098 75.821 C 79.417 75.556,79.451 63.018,79.133 62.700 C 78.859 62.426,76.848 62.433,76.743 62.709 M84.402 62.727 C 84.355 62.852,84.338 63.396,84.366 63.935 L 84.417 64.917 85.792 64.965 L 87.167 65.013 87.167 70.243 C 87.167 76.496,87.045 76.000,88.583 76.000 C 90.122 76.000,90.000 76.497,90.000 70.236 L 90.000 65.000 91.153 65.000 C 92.809 65.000,92.833 64.982,92.833 63.750 C 92.833 62.948,92.771 62.679,92.570 62.601 C 91.980 62.375,84.493 62.490,84.402 62.727 M97.909 62.709 C 97.865 62.824,97.849 65.842,97.873 69.417 L 97.917 75.917 101.750 75.917 L 105.583 75.917 105.633 74.792 L 105.682 73.667 103.008 73.667 L 100.333 73.667 100.333 71.750 L 100.333 69.833 102.653 69.833 C 105.528 69.833,105.500 69.843,105.500 68.829 C 105.500 67.445,105.611 67.500,102.816 67.500 L 100.333 67.500 100.333 66.254 L 100.333 65.008 102.958 64.963 L 105.583 64.917 105.634 63.849 C 105.669 63.107,105.618 62.738,105.467 62.643 C 105.091 62.404,98.002 62.466,97.909 62.709 M125.936 62.761 C 125.804 63.104,125.803 64.394,125.934 64.736 C 126.016 64.948,126.312 65.000,127.432 65.000 L 128.829 65.000 128.873 70.458 L 128.917 75.917 130.208 75.965 L 131.500 76.014 131.500 70.507 L 131.500 65.000 132.736 65.000 C 134.465 65.000,134.431 65.027,134.333 63.707 L 134.250 62.583 130.144 62.539 C 126.509 62.499,126.026 62.525,125.936 62.761 M139.533 67.701 L 139.583 72.917 140.082 73.817 C 141.671 76.686,146.588 76.996,148.606 74.353 C 149.577 73.082,149.667 72.485,149.667 67.321 C 149.667 62.129,149.769 62.500,148.333 62.500 C 146.901 62.500,147.000 62.162,146.996 67.059 C 146.991 72.082,146.924 72.544,146.087 73.274 C 144.809 74.388,142.986 73.938,142.279 72.333 C 142.168 72.080,142.061 70.082,142.006 67.250 L 141.917 62.583 140.700 62.534 L 139.482 62.485 139.533 67.701 M155.958 62.595 C 155.890 62.665,155.833 65.713,155.833 69.368 L 155.833 76.014 157.125 75.965 L 158.417 75.917 158.500 73.555 L 158.583 71.193 159.498 72.555 C 160.001 73.304,160.746 74.385,161.153 74.958 L 161.894 76.000 163.364 76.000 C 164.954 76.000,165.069 75.919,164.551 75.162 C 164.396 74.935,164.225 74.712,164.170 74.667 C 164.115 74.621,163.745 74.096,163.348 73.500 C 162.951 72.904,162.464 72.229,162.268 72.000 C 161.222 70.782,160.994 70.167,161.587 70.167 C 161.716 70.167,162.082 69.938,162.400 69.659 C 164.346 67.950,164.077 64.430,161.918 63.352 C 160.755 62.771,156.336 62.210,155.958 62.595 M170.083 62.872 C 170.032 63.080,170.011 66.100,170.037 69.583 L 170.083 75.917 173.958 75.961 L 177.833 76.006 177.833 74.836 L 177.833 73.667 175.250 73.667 L 172.667 73.667 172.667 71.750 L 172.667 69.833 175.174 69.833 L 177.682 69.833 177.633 68.708 L 177.583 67.583 175.125 67.537 L 172.667 67.491 172.667 66.250 L 172.667 65.009 175.208 64.963 L 177.750 64.917 177.750 63.750 L 177.750 62.583 173.962 62.539 L 170.175 62.494 170.083 62.872 M281.281 62.608 C 281.218 62.671,281.167 63.160,281.167 63.694 L 281.167 64.667 282.583 64.667 L 284.000 64.667 284.000 70.174 L 284.000 75.682 285.125 75.633 L 286.250 75.583 286.294 70.125 L 286.338 64.667 287.760 64.667 L 289.183 64.667 289.133 63.625 L 289.083 62.583 285.239 62.539 C 283.125 62.514,281.344 62.545,281.281 62.608 M294.292 62.591 C 294.223 62.663,294.167 65.635,294.167 69.194 L 294.167 75.667 295.246 75.667 L 296.325 75.667 296.371 73.047 L 296.417 70.427 297.062 71.326 C 297.417 71.820,297.775 72.306,297.856 72.404 C 297.938 72.503,298.360 73.112,298.794 73.757 C 300.215 75.872,299.959 75.688,301.411 75.632 L 302.696 75.583 301.890 74.479 C 301.446 73.871,300.971 73.206,300.833 73.001 C 300.538 72.561,299.504 71.170,299.256 70.881 C 298.686 70.214,298.686 70.227,299.269 70.016 C 300.676 69.507,301.540 68.208,301.547 66.590 C 301.555 64.616,300.696 63.554,298.522 62.852 C 297.813 62.623,294.459 62.416,294.292 62.591 M307.735 62.728 C 307.687 62.854,307.671 65.123,307.699 67.770 L 307.750 72.583 308.213 73.433 C 310.003 76.722,314.756 76.810,316.746 73.591 L 317.250 72.777 317.250 67.680 L 317.250 62.583 316.599 62.530 C 316.241 62.501,315.773 62.521,315.558 62.575 L 315.167 62.673 315.167 67.394 C 315.167 73.227,314.891 73.897,312.491 73.897 C 310.183 73.897,309.927 73.274,309.868 67.535 C 309.832 64.038,309.765 62.726,309.618 62.633 C 309.262 62.407,307.831 62.480,307.735 62.728 M337.947 62.608 C 337.885 62.671,337.833 63.160,337.833 63.694 L 337.833 64.667 339.292 64.667 L 340.750 64.667 340.750 70.125 L 340.750 75.583 341.789 75.633 L 342.829 75.682 342.873 70.216 L 342.917 64.750 344.383 64.702 L 345.849 64.653 345.799 63.618 L 345.750 62.583 341.906 62.539 C 339.791 62.514,338.010 62.545,337.947 62.608 M351.111 62.611 C 351.050 62.672,351.000 65.635,351.000 69.194 L 351.000 75.667 352.083 75.667 L 353.167 75.667 353.167 69.184 C 353.167 63.427,353.137 62.691,352.903 62.601 C 352.548 62.465,351.250 62.472,351.111 62.611 M197.292 64.474 C 197.921 64.817,197.807 65.722,197.047 66.418 C 196.481 66.937,196.403 66.964,196.142 66.728 C 194.736 65.455,195.682 63.599,197.292 64.474 M239.956 64.694 C 242.000 65.209,243.270 67.120,243.134 69.475 C 242.784 75.522,233.974 75.307,233.927 69.250 C 233.901 65.901,236.612 63.852,239.956 64.694 M366.956 64.694 C 369.000 65.209,370.270 67.120,370.134 69.475 C 369.784 75.522,360.974 75.307,360.927 69.250 C 360.901 65.901,363.612 63.852,366.956 64.694 M298.771 65.202 C 300.375 66.294,299.388 68.233,297.042 68.599 L 296.333 68.709 296.333 66.673 L 296.333 64.636 297.272 64.728 C 297.852 64.785,298.425 64.966,298.771 65.202 M34.443 65.275 C 35.984 66.003,35.478 67.912,33.597 68.462 C 32.688 68.728,32.667 68.689,32.667 66.754 C 32.667 64.674,32.850 64.521,34.443 65.275 M159.750 65.079 C 161.495 65.537,161.555 68.022,159.831 68.405 C 159.603 68.455,159.210 68.544,158.958 68.601 L 158.500 68.706 158.500 66.867 C 158.500 64.737,158.492 64.749,159.750 65.079 M19.348 68.455 C 19.563 68.984,19.865 69.679,20.021 70.000 L 20.305 70.583 18.881 70.632 C 17.157 70.690,17.191 70.719,17.702 69.631 C 17.929 69.146,18.251 68.435,18.419 68.050 C 18.788 67.202,18.852 67.231,19.348 68.455 M196.762 70.715 C 197.122 71.193,197.585 71.770,197.792 71.998 C 198.820 73.136,196.333 74.558,194.873 73.667 C 193.568 72.872,193.566 71.676,194.866 70.471 C 195.846 69.564,195.900 69.571,196.762 70.715 " stroke="none" fill="#ffffff" fill-rule="evenodd"></path></g></svg>